<?xml version="1.0" encoding="UTF-8"?>
<svg width="24px" height="24px" viewBox="0 0 24 24" version="1.1" xmlns="http://www.w3.org/2000/svg">
    <path d="M23,5.89 C22.26,6.21 21.46,6.42 20.64,6.53 C21.49,6.01 22.14,5.19 22.45,4.22 C21.65,4.7 20.76,5.04 19.81,5.23 C19.06,4.41 17.96,3.91 16.76,3.91 C14.44,3.91 12.56,5.79 12.56,8.11 C12.56,8.42 12.59,8.73 12.65,9.02 C9.12,8.85 5.97,7.17 3.85,4.6 C3.51,5.19 3.32,5.88 3.32,6.62 C3.32,8.01 4.02,9.24 5.1,9.96 C4.42,9.94 3.78,9.75 3.21,9.44 L3.21,9.49 C3.21,11.53 4.67,13.24 6.58,13.61 C6.25,13.7 5.9,13.74 5.54,13.74 C5.28,13.74 5.03,13.72 4.79,13.67 C5.29,15.35 6.86,16.57 8.71,16.6 C7.26,17.73 5.42,18.41 3.42,18.41 C3.1,18.41 2.79,18.39 2.48,18.35 C4.35,19.56 6.57,20.27 8.95,20.27 C16.75,20.27 21,13.81 21,8.22 L21,7.67 C21.82,7.08 22.52,6.34 23,5.89 Z" fill="#000000"></path>
</svg> 